<svg aria-roledescription="stateDiagram" role="graphics-document document" viewBox="0 -1 1200.4140625 266.6499938964844" style="max-width: 1200.4140625px;" class="statediagram" xmlns:xlink="http://www.w3.org/1999/xlink" xmlns="http://www.w3.org/2000/svg" width="100%" id="mermaid-1784133520953"><style>#mermaid-1784133520953{font-family:"trebuchet ms",verdana,arial,sans-serif;font-size:16px;fill:#000000;}#mermaid-1784133520953 .error-icon{fill:#552222;}#mermaid-1784133520953 .error-text{fill:#552222;stroke:#552222;}#mermaid-1784133520953 .edge-thickness-normal{stroke-width:1px;}#mermaid-1784133520953 .edge-thickness-thick{stroke-width:3.5px;}#mermaid-1784133520953 .edge-pattern-solid{stroke-dasharray:0;}#mermaid-1784133520953 .edge-thickness-invisible{stroke-width:0;fill:none;}#mermaid-1784133520953 .edge-pattern-dashed{stroke-dasharray:3;}#mermaid-1784133520953 .edge-pattern-dotted{stroke-dasharray:2;}#mermaid-1784133520953 .marker{fill:#666;stroke:#666;}#mermaid-1784133520953 .marker.cross{stroke:#666;}#mermaid-1784133520953 svg{font-family:"trebuchet ms",verdana,arial,sans-serif;font-size:16px;}#mermaid-1784133520953 p{margin:0;}#mermaid-1784133520953 defs #statediagram-barbEnd{fill:#000;stroke:#000;}#mermaid-1784133520953 g.stateGroup text{fill:#999;stroke:none;font-size:10px;}#mermaid-1784133520953 g.stateGroup text{fill:#000000;stroke:none;font-size:10px;}#mermaid-1784133520953 g.stateGroup .state-title{font-weight:bolder;fill:#111111;}#mermaid-1784133520953 g.stateGroup rect{fill:#eee;stroke:#999;}#mermaid-1784133520953 g.stateGroup line{stroke:#666;stroke-width:1;}#mermaid-1784133520953 .transition{stroke:#000;stroke-width:1;fill:none;}#mermaid-1784133520953 .stateGroup .composit{fill:#ffffff;border-bottom:1px;}#mermaid-1784133520953 .stateGroup .alt-composit{fill:#e0e0e0;border-bottom:1px;}#mermaid-1784133520953 .state-note{stroke:#999;fill:#666;}#mermaid-1784133520953 .state-note text{fill:#fff;stroke:none;font-size:10px;}#mermaid-1784133520953 .stateLabel .box{stroke:none;stroke-width:0;fill:#eee;opacity:0.5;}#mermaid-1784133520953 .edgeLabel .label rect{fill:#eee;opacity:0.5;}#mermaid-1784133520953 .edgeLabel{background-color:white;text-align:center;}#mermaid-1784133520953 .edgeLabel p{background-color:white;}#mermaid-1784133520953 .edgeLabel rect{opacity:0.5;background-color:white;fill:white;}#mermaid-1784133520953 .edgeLabel .label text{fill:#000000;}#mermaid-1784133520953 .label div .edgeLabel{color:#000000;}#mermaid-1784133520953 .stateLabel text{fill:#111111;font-size:10px;font-weight:bold;}#mermaid-1784133520953 .node circle.state-start{fill:#222;stroke:#222;}#mermaid-1784133520953 .node .fork-join{fill:#222;stroke:#222;}#mermaid-1784133520953 .node circle.state-end{fill:hsl(0, 0%, 83.3333333333%);stroke:#ffffff;stroke-width:1.5;}#mermaid-1784133520953 .end-state-inner{fill:#ffffff;stroke-width:1.5;}#mermaid-1784133520953 .node rect{fill:#eee;stroke:#000;stroke-width:1px;}#mermaid-1784133520953 .node polygon{fill:#eee;stroke:#000;stroke-width:1px;}#mermaid-1784133520953 #statediagram-barbEnd{fill:#666;}#mermaid-1784133520953 .statediagram-cluster rect{fill:#eee;stroke:#000;stroke-width:1px;}#mermaid-1784133520953 .cluster-label,#mermaid-1784133520953 .nodeLabel{color:#111111;}#mermaid-1784133520953 .statediagram-cluster rect.outer{rx:5px;ry:5px;}#mermaid-1784133520953 .statediagram-state .divider{stroke:#000;}#mermaid-1784133520953 .statediagram-state .title-state{rx:5px;ry:5px;}#mermaid-1784133520953 .statediagram-cluster.statediagram-cluster .inner{fill:#ffffff;}#mermaid-1784133520953 .statediagram-cluster.statediagram-cluster-alt .inner{fill:#f4f4f4;}#mermaid-1784133520953 .statediagram-cluster .inner{rx:0;ry:0;}#mermaid-1784133520953 .statediagram-state rect.basic{rx:5px;ry:5px;}#mermaid-1784133520953 .statediagram-state rect.divider{stroke-dasharray:10,10;fill:#f4f4f4;}#mermaid-1784133520953 .note-edge{stroke-dasharray:5;}#mermaid-1784133520953 .statediagram-note rect{fill:#666;stroke:#999;stroke-width:1px;rx:0;ry:0;}#mermaid-1784133520953 .statediagram-note rect{fill:#666;stroke:#999;stroke-width:1px;rx:0;ry:0;}#mermaid-1784133520953 .statediagram-note text{fill:#fff;}#mermaid-1784133520953 .statediagram-note .nodeLabel{color:#fff;}#mermaid-1784133520953 .statediagram .edgeLabel{color:red;}#mermaid-1784133520953 #dependencyStart,#mermaid-1784133520953 #dependencyEnd{fill:#666;stroke:#666;stroke-width:1;}#mermaid-1784133520953 .statediagramTitleText{text-anchor:middle;font-size:18px;fill:#000000;}#mermaid-1784133520953 :root{--mermaid-font-family:"trebuchet ms",verdana,arial,sans-serif;}</style><g><defs><marker orient="auto" markerUnits="userSpaceOnUse" markerHeight="14" markerWidth="20" refY="7" refX="19" id="mermaid-1784133520953_stateDiagram-barbEnd"><path d="M 19,7 L9,13 L14,7 L9,1 Z"></path></marker></defs><g class="root"><g class="clusters"></g><g class="edgePaths"><path marker-end="url(#mermaid-1784133520953_stateDiagram-barbEnd)" style=";fill:none" class="edge-thickness-normal edge-pattern-solid transition" id="edge0" d="M22,178.5L26.167,178.5C30.333,178.5,38.667,178.5,47,178.5C55.333,178.5,63.667,178.5,67.833,178.5L72,178.5"></path><path marker-end="url(#mermaid-1784133520953_stateDiagram-barbEnd)" style=";fill:none" class="edge-thickness-normal edge-pattern-solid transition" id="edge1" d="M132.997,161.25L150.836,147.6C168.675,133.95,204.353,106.65,237.38,93C270.406,79.35,300.781,79.35,315.969,79.35L331.156,79.35"></path><path marker-end="url(#mermaid-1784133520953_stateDiagram-barbEnd)" style=";fill:none" class="edge-thickness-normal edge-pattern-solid transition" id="edge2" d="M449.357,62.1L467.627,56.425C485.898,50.75,522.439,39.4,561.635,36.949C600.831,34.498,642.681,40.947,663.606,44.171L684.531,47.395"></path><path marker-end="url(#mermaid-1784133520953_stateDiagram-barbEnd)" style=";fill:none" class="edge-thickness-normal edge-pattern-solid transition" id="edge3" d="M766.367,53.7L779.982,53.7C793.596,53.7,820.826,53.7,844.212,56.948C867.599,60.196,887.143,66.691,896.915,69.939L906.688,73.187"></path><path marker-end="url(#mermaid-1784133520953_stateDiagram-barbEnd)" style=";fill:none" class="edge-thickness-normal edge-pattern-solid transition" id="edge4" d="M980.484,85.45L991.651,85.45C1002.818,85.45,1025.151,85.45,1050.704,98.083C1076.258,110.717,1105.031,135.983,1119.418,148.617L1133.805,161.25"></path><path marker-end="url(#mermaid-1784133520953_stateDiagram-barbEnd)" style=";fill:none" class="edge-thickness-normal edge-pattern-solid transition" id="edge5" d="M1114.484,178.5L1103.318,178.5C1092.151,178.5,1069.818,178.5,1041.335,178.5C1012.852,178.5,978.219,178.5,944.98,178.5C911.742,178.5,879.898,178.5,843.542,178.5C807.186,178.5,766.318,178.5,718.139,178.5C669.96,178.5,614.47,178.5,559.199,178.5C503.927,178.5,448.874,178.5,395.715,178.5C342.557,178.5,291.294,178.5,250.475,178.5C209.656,178.5,179.281,178.5,164.094,178.5L148.906,178.5"></path><path marker-end="url(#mermaid-1784133520953_stateDiagram-barbEnd)" style=";fill:none" class="edge-thickness-normal edge-pattern-solid transition" id="edge6" d="M684.531,60.005L663.606,63.229C642.681,66.453,600.831,72.902,562.823,76.126C524.815,79.35,490.65,79.35,473.567,79.35L456.484,79.35"></path><path marker-end="url(#mermaid-1784133520953_stateDiagram-barbEnd)" style=";fill:none" class="edge-thickness-normal edge-pattern-solid transition" id="edge7" d="M906.688,101.392L896.915,105.614C887.143,109.836,867.599,118.281,837.393,122.503C807.186,126.725,766.318,126.725,718.139,126.725C669.96,126.725,614.47,126.725,569.221,121.704C523.973,116.683,488.965,106.642,471.462,101.621L453.958,96.6"></path><path marker-end="url(#mermaid-1784133520953_stateDiagram-barbEnd)" style=";fill:none" class="edge-thickness-normal edge-pattern-solid transition" id="edge8" d="M1123.035,195.75L1110.443,202.892C1097.851,210.033,1072.668,224.317,1042.76,231.458C1012.852,238.6,978.219,238.6,944.98,238.6C911.742,238.6,879.898,238.6,843.542,238.6C807.186,238.6,766.318,238.6,718.139,238.6C669.96,238.6,614.47,238.6,559.199,238.6C503.927,238.6,448.874,238.6,395.715,238.6C342.557,238.6,291.294,238.6,250.265,231.458C209.236,224.317,178.44,210.033,163.043,202.892L147.645,195.75"></path></g><g class="edgeLabels"><g><rect style="stroke: none" class="background"></rect></g><g class="edgeLabel"><g transform="translate(0, 0)" class="label"><text y="-10.1"><tspan dy="1.1em" y="-0.1em" x="0" class="text-outer-tspan"></tspan></text></g></g><g transform="translate(240.03125, 79.3499984741211)" class="edgeLabel"><g transform="translate(-66.125, -11.25)" class="label"><g><rect height="22.5" width="132.25" y="-1" x="-2" style="" class="background"></rect><text style="" y="-10.1"><tspan dy="1.1em" y="-0.1em" x="0" class="text-outer-tspan"><tspan font-weight="normal" class="text-inner-tspan" font-style="normal">speech.confirmed</tspan></tspan></text></g></g></g><g transform="translate(558.98046875, 28.049999237060547)" class="edgeLabel"><g transform="translate(-77.49609375, -20.049999237060547)" class="label"><g><rect height="40.099998474121094" width="154.9921875" y="-1" x="-2" style="" class="background"></rect><text style="" y="-10.1"><tspan dy="1.1em" y="-0.1em" x="0" class="text-outer-tspan"><tspan font-weight="normal" class="text-inner-tspan" font-style="normal">静默达到阈值</tspan></tspan><tspan dy="1.1em" y="1em" x="0" class="text-outer-tspan"><tspan font-weight="normal" class="text-inner-tspan" font-style="normal">(soft-finalize</tspan><tspan font-weight="normal" class="text-inner-tspan" font-style="normal"> 可重开)</tspan></tspan></text></g></g></g><g transform="translate(848.0546875, 53.69999885559082)" class="edgeLabel"><g transform="translate(-33.6328125, -11.25)" class="label"><g><rect height="22.5" width="67.265625" y="-1" x="-2" style="" class="background"></rect><text style="" y="-10.1"><tspan dy="1.1em" y="-0.1em" x="0" class="text-outer-tspan"><tspan font-weight="normal" class="text-inner-tspan" font-style="normal">ASR</tspan><tspan font-weight="normal" class="text-inner-tspan" font-style="normal"> 分发</tspan></tspan></text></g></g></g><g transform="translate(1047.484375, 85.44999885559082)" class="edgeLabel"><g transform="translate(-42, -11.25)" class="label"><g><rect height="22.5" width="84" y="-1" x="-2" style="" class="background"></rect><text style="" y="-10.1"><tspan dy="1.1em" y="-0.1em" x="0" class="text-outer-tspan"><tspan font-weight="normal" class="text-inner-tspan" font-style="normal">首个合成块</tspan></tspan></text></g></g></g><g transform="translate(725.44921875, 178.49999809265137)" class="edgeLabel"><g transform="translate(-58.02734375, -20.049999237060547)" class="label"><g><rect height="40.099998474121094" width="116.0546875" y="-1" x="-2" style="" class="background"></rect><text style="" y="-10.1"><tspan dy="1.1em" y="-0.1em" x="0" class="text-outer-tspan"><tspan font-weight="normal" class="text-inner-tspan" font-style="normal">播放可听完成</tspan></tspan><tspan dy="1.1em" y="1em" x="0" class="text-outer-tspan"><tspan font-weight="normal" class="text-inner-tspan" font-style="normal">turn.completed</tspan></tspan></text></g></g></g><g transform="translate(558.98046875, 79.3499984741211)" class="edgeLabel"><g transform="translate(-57.22265625, -11.25)" class="label"><g><rect height="22.5" width="114.4453125" y="-1" x="-2" style="" class="background"></rect><text style="" y="-10.1"><tspan dy="1.1em" y="-0.1em" x="0" class="text-outer-tspan"><tspan font-weight="normal" class="text-inner-tspan" font-style="normal">reopen(修订+1)</tspan></tspan></text></g></g></g><g transform="translate(725.44921875, 126.7249984741211)" class="edgeLabel"><g transform="translate(-57.22265625, -11.25)" class="label"><g><rect height="22.5" width="114.4453125" y="-1" x="-2" style="" class="background"></rect><text style="" y="-10.1"><tspan dy="1.1em" y="-0.1em" x="0" class="text-outer-tspan"><tspan font-weight="normal" class="text-inner-tspan" font-style="normal">reopen(修订+1)</tspan></tspan></text></g></g></g><g transform="translate(725.44921875, 238.59999656677246)" class="edgeLabel"><g transform="translate(-63.97265625, -20.049999237060547)" class="label"><g><rect height="40.099998474121094" width="127.9453125" y="-1" x="-2" style="" class="background"></rect><text style="" y="-10.1"><tspan dy="1.1em" y="-0.1em" x="0" class="text-outer-tspan"><tspan font-weight="normal" class="text-inner-tspan" font-style="normal">barge-in</tspan><tspan font-weight="normal" class="text-inner-tspan" font-style="normal"> /</tspan><tspan font-weight="normal" class="text-inner-tspan" font-style="normal"> cancel</tspan></tspan><tspan dy="1.1em" y="1em" x="0" class="text-outer-tspan"><tspan font-weight="normal" class="text-inner-tspan" font-style="normal">turn.interrupted</tspan></tspan></text></g></g></g></g><g class="nodes"><g transform="translate(15, 178.49999809265137)" id="state-root_start-0" class="node default"><circle height="14" width="14" r="7" class="state-start"></circle></g><g transform="translate(110.453125, 178.49999809265137)" id="state-listening-8" class="node  statediagram-state"><rect height="34.5" width="76.90625" y="-17.25" x="-38.453125" ry="5" rx="5" style="" class="basic label-container"></rect><g transform="translate(-30.453125, -9.25)" style="" class="label"><rect></rect><g><rect style="stroke: none" class="background"></rect><text style="" y="-10.1"><tspan dy="1.1em" y="-0.1em" x="0" class="text-outer-tspan"><tspan font-weight="normal" class="text-inner-tspan" font-style="normal">listening</tspan></tspan></text></g></g></g><g transform="translate(393.8203125, 79.3499984741211)" id="state-speech_started-7" class="node  statediagram-state"><rect height="34.5" width="125.328125" y="-17.25" x="-62.6640625" ry="5" rx="5" style="" class="basic label-container"></rect><g transform="translate(-54.6640625, -9.25)" style="" class="label"><rect></rect><g><rect style="stroke: none" class="background"></rect><text style="" y="-10.1"><tspan dy="1.1em" y="-0.1em" x="0" class="text-outer-tspan"><tspan font-weight="normal" class="text-inner-tspan" font-style="normal">speech_started</tspan></tspan></text></g></g></g><g transform="translate(725.44921875, 53.69999885559082)" id="state-finalizing-6" class="node  statediagram-state"><rect height="34.5" width="81.8359375" y="-17.25" x="-40.91796875" ry="5" rx="5" style="" class="basic label-container"></rect><g transform="translate(-32.91796875, -9.25)" style="" class="label"><rect></rect><g><rect style="stroke: none" class="background"></rect><text style="" y="-10.1"><tspan dy="1.1em" y="-0.1em" x="0" class="text-outer-tspan"><tspan font-weight="normal" class="text-inner-tspan" font-style="normal">finalizing</tspan></tspan></text></g></g></g><g transform="translate(943.5859375, 85.44999885559082)" id="state-thinking-7" class="node  statediagram-state"><rect height="34.5" width="73.796875" y="-17.25" x="-36.8984375" ry="5" rx="5" style="" class="basic label-container"></rect><g transform="translate(-28.8984375, -9.25)" style="" class="label"><rect></rect><g><rect style="stroke: none" class="background"></rect><text style="" y="-10.1"><tspan dy="1.1em" y="-0.1em" x="0" class="text-outer-tspan"><tspan font-weight="normal" class="text-inner-tspan" font-style="normal">thinking</tspan></tspan></text></g></g></g><g transform="translate(1153.44921875, 178.49999809265137)" id="state-speaking-8" class="node  statediagram-state"><rect height="34.5" width="77.9296875" y="-17.25" x="-38.96484375" ry="5" rx="5" style="" class="basic label-container"></rect><g transform="translate(-30.96484375, -9.25)" style="" class="label"><rect></rect><g><rect style="stroke: none" class="background"></rect><text style="" y="-10.1"><tspan dy="1.1em" y="-0.1em" x="0" class="text-outer-tspan"><tspan font-weight="normal" class="text-inner-tspan" font-style="normal">speaking</tspan></tspan></text></g></g></g></g></g></g></svg>