<svg aria-roledescription="stateDiagram" role="graphics-document document" viewBox="0 -1 1438.6015625 266.6499938964844" style="max-width: 1438.6015625px;" class="statediagram" xmlns:xlink="http://www.w3.org/1999/xlink" xmlns="http://www.w3.org/2000/svg" width="100%" id="mermaid-1784250787643"><style>#mermaid-1784250787643{font-family:"trebuchet ms",verdana,arial,sans-serif;font-size:16px;fill:#000000;}#mermaid-1784250787643 .error-icon{fill:#552222;}#mermaid-1784250787643 .error-text{fill:#552222;stroke:#552222;}#mermaid-1784250787643 .edge-thickness-normal{stroke-width:1px;}#mermaid-1784250787643 .edge-thickness-thick{stroke-width:3.5px;}#mermaid-1784250787643 .edge-pattern-solid{stroke-dasharray:0;}#mermaid-1784250787643 .edge-thickness-invisible{stroke-width:0;fill:none;}#mermaid-1784250787643 .edge-pattern-dashed{stroke-dasharray:3;}#mermaid-1784250787643 .edge-pattern-dotted{stroke-dasharray:2;}#mermaid-1784250787643 .marker{fill:#666;stroke:#666;}#mermaid-1784250787643 .marker.cross{stroke:#666;}#mermaid-1784250787643 svg{font-family:"trebuchet ms",verdana,arial,sans-serif;font-size:16px;}#mermaid-1784250787643 p{margin:0;}#mermaid-1784250787643 defs #statediagram-barbEnd{fill:#000;stroke:#000;}#mermaid-1784250787643 g.stateGroup text{fill:#999;stroke:none;font-size:10px;}#mermaid-1784250787643 g.stateGroup text{fill:#000000;stroke:none;font-size:10px;}#mermaid-1784250787643 g.stateGroup .state-title{font-weight:bolder;fill:#111111;}#mermaid-1784250787643 g.stateGroup rect{fill:#eee;stroke:#999;}#mermaid-1784250787643 g.stateGroup line{stroke:#666;stroke-width:1;}#mermaid-1784250787643 .transition{stroke:#000;stroke-width:1;fill:none;}#mermaid-1784250787643 .stateGroup .composit{fill:#ffffff;border-bottom:1px;}#mermaid-1784250787643 .stateGroup .alt-composit{fill:#e0e0e0;border-bottom:1px;}#mermaid-1784250787643 .state-note{stroke:#999;fill:#666;}#mermaid-1784250787643 .state-note text{fill:#fff;stroke:none;font-size:10px;}#mermaid-1784250787643 .stateLabel .box{stroke:none;stroke-width:0;fill:#eee;opacity:0.5;}#mermaid-1784250787643 .edgeLabel .label rect{fill:#eee;opacity:0.5;}#mermaid-1784250787643 .edgeLabel{background-color:white;text-align:center;}#mermaid-1784250787643 .edgeLabel p{background-color:white;}#mermaid-1784250787643 .edgeLabel rect{opacity:0.5;background-color:white;fill:white;}#mermaid-1784250787643 .edgeLabel .label text{fill:#000000;}#mermaid-1784250787643 .label div .edgeLabel{color:#000000;}#mermaid-1784250787643 .stateLabel text{fill:#111111;font-size:10px;font-weight:bold;}#mermaid-1784250787643 .node circle.state-start{fill:#222;stroke:#222;}#mermaid-1784250787643 .node .fork-join{fill:#222;stroke:#222;}#mermaid-1784250787643 .node circle.state-end{fill:hsl(0, 0%, 83.3333333333%);stroke:#ffffff;stroke-width:1.5;}#mermaid-1784250787643 .end-state-inner{fill:#ffffff;stroke-width:1.5;}#mermaid-1784250787643 .node rect{fill:#eee;stroke:#000;stroke-width:1px;}#mermaid-1784250787643 .node polygon{fill:#eee;stroke:#000;stroke-width:1px;}#mermaid-1784250787643 #statediagram-barbEnd{fill:#666;}#mermaid-1784250787643 .statediagram-cluster rect{fill:#eee;stroke:#000;stroke-width:1px;}#mermaid-1784250787643 .cluster-label,#mermaid-1784250787643 .nodeLabel{color:#111111;}#mermaid-1784250787643 .statediagram-cluster rect.outer{rx:5px;ry:5px;}#mermaid-1784250787643 .statediagram-state .divider{stroke:#000;}#mermaid-1784250787643 .statediagram-state .title-state{rx:5px;ry:5px;}#mermaid-1784250787643 .statediagram-cluster.statediagram-cluster .inner{fill:#ffffff;}#mermaid-1784250787643 .statediagram-cluster.statediagram-cluster-alt .inner{fill:#f4f4f4;}#mermaid-1784250787643 .statediagram-cluster .inner{rx:0;ry:0;}#mermaid-1784250787643 .statediagram-state rect.basic{rx:5px;ry:5px;}#mermaid-1784250787643 .statediagram-state rect.divider{stroke-dasharray:10,10;fill:#f4f4f4;}#mermaid-1784250787643 .note-edge{stroke-dasharray:5;}#mermaid-1784250787643 .statediagram-note rect{fill:#666;stroke:#999;stroke-width:1px;rx:0;ry:0;}#mermaid-1784250787643 .statediagram-note rect{fill:#666;stroke:#999;stroke-width:1px;rx:0;ry:0;}#mermaid-1784250787643 .statediagram-note text{fill:#fff;}#mermaid-1784250787643 .statediagram-note .nodeLabel{color:#fff;}#mermaid-1784250787643 .statediagram .edgeLabel{color:red;}#mermaid-1784250787643 #dependencyStart,#mermaid-1784250787643 #dependencyEnd{fill:#666;stroke:#666;stroke-width:1;}#mermaid-1784250787643 .statediagramTitleText{text-anchor:middle;font-size:18px;fill:#000000;}#mermaid-1784250787643 :root{--mermaid-font-family:"trebuchet ms",verdana,arial,sans-serif;}</style><g><defs><marker orient="auto" markerUnits="userSpaceOnUse" markerHeight="14" markerWidth="20" refY="7" refX="19" id="mermaid-1784250787643_stateDiagram-barbEnd"><path d="M 19,7 L9,13 L14,7 L9,1 Z"></path></marker></defs><g class="root"><g class="clusters"></g><g class="edgePaths"><path marker-end="url(#mermaid-1784250787643_stateDiagram-barbEnd)" style=";fill:none" class="edge-thickness-normal edge-pattern-solid transition" id="edge0" d="M22,178.5L26.167,178.5C30.333,178.5,38.667,178.5,47,178.5C55.333,178.5,63.667,178.5,67.833,178.5L72,178.5"></path><path marker-end="url(#mermaid-1784250787643_stateDiagram-barbEnd)" style=";fill:none" class="edge-thickness-normal edge-pattern-solid transition" id="edge1" d="M132.997,161.25L150.836,147.6C168.675,133.95,204.353,106.65,237.38,93C270.406,79.35,300.781,79.35,315.969,79.35L331.156,79.35"></path><path marker-end="url(#mermaid-1784250787643_stateDiagram-barbEnd)" style=";fill:none" class="edge-thickness-normal edge-pattern-solid transition" id="edge2" d="M455.839,62.1L476.242,56.425C496.645,50.75,537.451,39.4,587.754,37.206C638.057,35.012,697.857,41.974,727.757,45.455L757.656,48.936"></path><path marker-end="url(#mermaid-1784250787643_stateDiagram-barbEnd)" style=";fill:none" class="edge-thickness-normal edge-pattern-solid transition" id="edge3" d="M839.492,53.7L862.695,53.7C885.898,53.7,932.305,53.7,969.107,57.344C1005.909,60.988,1033.107,68.275,1046.706,71.919L1060.305,75.563"></path><path marker-end="url(#mermaid-1784250787643_stateDiagram-barbEnd)" style=";fill:none" class="edge-thickness-normal edge-pattern-solid transition" id="edge4" d="M1134.102,85.45L1152.316,85.45C1170.53,85.45,1206.958,85.45,1245.3,98.083C1283.642,110.717,1323.898,135.983,1344.026,148.617L1364.154,161.25"></path><path marker-end="url(#mermaid-1784250787643_stateDiagram-barbEnd)" style=";fill:none" class="edge-thickness-normal edge-pattern-solid transition" id="edge5" d="M1352.672,178.5L1334.458,178.5C1316.243,178.5,1279.815,178.5,1237.237,178.5C1194.659,178.5,1145.931,178.5,1101.818,178.5C1057.706,178.5,1018.208,178.5,968.437,178.5C918.665,178.5,858.62,178.5,791.878,178.5C725.135,178.5,651.697,178.5,584.238,178.5C516.779,178.5,455.299,178.5,398.928,178.5C342.557,178.5,291.294,178.5,250.475,178.5C209.656,178.5,179.281,178.5,164.094,178.5L148.906,178.5"></path><path marker-end="url(#mermaid-1784250787643_stateDiagram-barbEnd)" style=";fill:none" class="edge-thickness-normal edge-pattern-solid transition" id="edge6" d="M757.656,58.464L727.757,61.945C697.857,65.426,638.057,72.388,587.862,75.869C537.667,79.35,497.076,79.35,476.78,79.35L456.484,79.35"></path><path marker-end="url(#mermaid-1784250787643_stateDiagram-barbEnd)" style=";fill:none" class="edge-thickness-normal edge-pattern-solid transition" id="edge7" d="M1060.305,98.303L1046.706,103.04C1033.107,107.777,1005.909,117.251,962.287,121.988C918.665,126.725,858.62,126.725,791.878,126.725C725.135,126.725,651.697,126.725,594.682,121.512C537.667,116.299,497.076,105.872,476.78,100.659L456.484,95.446"></path><path marker-end="url(#mermaid-1784250787643_stateDiagram-barbEnd)" style=";fill:none" class="edge-thickness-normal edge-pattern-solid transition" id="edge8" d="M1352.672,194.296L1334.458,201.68C1316.243,209.064,1279.815,223.832,1237.237,231.216C1194.659,238.6,1145.931,238.6,1101.818,238.6C1057.706,238.6,1018.208,238.6,968.437,238.6C918.665,238.6,858.62,238.6,791.878,238.6C725.135,238.6,651.697,238.6,584.238,238.6C516.779,238.6,455.299,238.6,398.928,238.6C342.557,238.6,291.294,238.6,250.265,231.458C209.236,224.317,178.44,210.033,163.043,202.892L147.645,195.75"></path></g><g class="edgeLabels"><g><rect style="stroke: none" class="background"></rect></g><g class="edgeLabel"><g transform="translate(0, 0)" class="label"><text y="-10.1"><tspan dy="1.1em" y="-0.1em" x="0" class="text-outer-tspan"></tspan></text></g></g><g transform="translate(240.03125, 79.3499984741211)" class="edgeLabel"><g transform="translate(-66.125, -11.25)" class="label"><g><rect height="22.5" width="132.25" y="-1" x="-2" style="" class="background"></rect><text style="" y="-10.1"><tspan dy="1.1em" y="-0.1em" x="0" class="text-outer-tspan"><tspan font-weight="normal" class="text-inner-tspan" font-style="normal">speech.confirmed</tspan></tspan></text></g></g></g><g transform="translate(578.2578125, 28.049999237060547)" class="edgeLabel"><g transform="translate(-96.7734375, -20.049999237060547)" class="label"><g><rect height="40.099998474121094" width="193.546875" y="-1" x="-2" style="" class="background"></rect><text style="" y="-10.1"><tspan dy="1.1em" y="-0.1em" x="0" class="text-outer-tspan"><tspan font-weight="normal" class="text-inner-tspan" font-style="normal">silence</tspan><tspan font-weight="normal" class="text-inner-tspan" font-style="normal"> threshold</tspan></tspan><tspan dy="1.1em" y="1em" x="0" class="text-outer-tspan"><tspan font-weight="normal" class="text-inner-tspan" font-style="normal">(soft-finalize,</tspan><tspan font-weight="normal" class="text-inner-tspan" font-style="normal"> reopenable)</tspan></tspan></text></g></g></g><g transform="translate(978.7109375, 53.69999885559082)" class="edgeLabel"><g transform="translate(-56.59375, -11.25)" class="label"><g><rect height="22.5" width="113.1875" y="-1" x="-2" style="" class="background"></rect><text style="" y="-10.1"><tspan dy="1.1em" y="-0.1em" x="0" class="text-outer-tspan"><tspan font-weight="normal" class="text-inner-tspan" font-style="normal">ASR</tspan><tspan font-weight="normal" class="text-inner-tspan" font-style="normal"> dispatched</tspan></tspan></text></g></g></g><g transform="translate(1243.38671875, 85.44999885559082)" class="edgeLabel"><g transform="translate(-84.28515625, -11.25)" class="label"><g><rect height="22.5" width="168.5703125" y="-1" x="-2" style="" class="background"></rect><text style="" y="-10.1"><tspan dy="1.1em" y="-0.1em" x="0" class="text-outer-tspan"><tspan font-weight="normal" class="text-inner-tspan" font-style="normal">first</tspan><tspan font-weight="normal" class="text-inner-tspan" font-style="normal"> synthesized</tspan><tspan font-weight="normal" class="text-inner-tspan" font-style="normal"> chunk</tspan></tspan></text></g></g></g><g transform="translate(798.57421875, 178.49999809265137)" class="edgeLabel"><g transform="translate(-98.54296875, -20.049999237060547)" class="label"><g><rect height="40.099998474121094" width="197.0859375" y="-1" x="-2" style="" class="background"></rect><text style="" y="-10.1"><tspan dy="1.1em" y="-0.1em" x="0" class="text-outer-tspan"><tspan font-weight="normal" class="text-inner-tspan" font-style="normal">audible</tspan><tspan font-weight="normal" class="text-inner-tspan" font-style="normal"> playback</tspan><tspan font-weight="normal" class="text-inner-tspan" font-style="normal"> complete</tspan></tspan><tspan dy="1.1em" y="1em" x="0" class="text-outer-tspan"><tspan font-weight="normal" class="text-inner-tspan" font-style="normal">turn.completed</tspan></tspan></text></g></g></g><g transform="translate(578.2578125, 79.3499984741211)" class="edgeLabel"><g transform="translate(-71.48828125, -11.25)" class="label"><g><rect height="22.5" width="142.9765625" y="-1" x="-2" style="" class="background"></rect><text style="" y="-10.1"><tspan dy="1.1em" y="-0.1em" x="0" class="text-outer-tspan"><tspan font-weight="normal" class="text-inner-tspan" font-style="normal">reopen</tspan><tspan font-weight="normal" class="text-inner-tspan" font-style="normal"> (revision+1)</tspan></tspan></text></g></g></g><g transform="translate(798.57421875, 126.7249984741211)" class="edgeLabel"><g transform="translate(-71.48828125, -11.25)" class="label"><g><rect height="22.5" width="142.9765625" y="-1" x="-2" style="" class="background"></rect><text style="" y="-10.1"><tspan dy="1.1em" y="-0.1em" x="0" class="text-outer-tspan"><tspan font-weight="normal" class="text-inner-tspan" font-style="normal">reopen</tspan><tspan font-weight="normal" class="text-inner-tspan" font-style="normal"> (revision+1)</tspan></tspan></text></g></g></g><g transform="translate(798.57421875, 238.59999656677246)" class="edgeLabel"><g transform="translate(-63.97265625, -20.049999237060547)" class="label"><g><rect height="40.099998474121094" width="127.9453125" y="-1" x="-2" style="" class="background"></rect><text style="" y="-10.1"><tspan dy="1.1em" y="-0.1em" x="0" class="text-outer-tspan"><tspan font-weight="normal" class="text-inner-tspan" font-style="normal">barge-in</tspan><tspan font-weight="normal" class="text-inner-tspan" font-style="normal"> /</tspan><tspan font-weight="normal" class="text-inner-tspan" font-style="normal"> cancel</tspan></tspan><tspan dy="1.1em" y="1em" x="0" class="text-outer-tspan"><tspan font-weight="normal" class="text-inner-tspan" font-style="normal">turn.interrupted</tspan></tspan></text></g></g></g></g><g class="nodes"><g transform="translate(15, 178.49999809265137)" id="state-root_start-0" class="node default"><circle height="14" width="14" r="7" class="state-start"></circle></g><g transform="translate(110.453125, 178.49999809265137)" id="state-listening-8" class="node  statediagram-state"><rect height="34.5" width="76.90625" y="-17.25" x="-38.453125" ry="5" rx="5" style="" class="basic label-container"></rect><g transform="translate(-30.453125, -9.25)" style="" class="label"><rect></rect><g><rect style="stroke: none" class="background"></rect><text style="" y="-10.1"><tspan dy="1.1em" y="-0.1em" x="0" class="text-outer-tspan"><tspan font-weight="normal" class="text-inner-tspan" font-style="normal">listening</tspan></tspan></text></g></g></g><g transform="translate(393.8203125, 79.3499984741211)" id="state-speech_started-7" class="node  statediagram-state"><rect height="34.5" width="125.328125" y="-17.25" x="-62.6640625" ry="5" rx="5" style="" class="basic label-container"></rect><g transform="translate(-54.6640625, -9.25)" style="" class="label"><rect></rect><g><rect style="stroke: none" class="background"></rect><text style="" y="-10.1"><tspan dy="1.1em" y="-0.1em" x="0" class="text-outer-tspan"><tspan font-weight="normal" class="text-inner-tspan" font-style="normal">speech_started</tspan></tspan></text></g></g></g><g transform="translate(798.57421875, 53.69999885559082)" id="state-finalizing-6" class="node  statediagram-state"><rect height="34.5" width="81.8359375" y="-17.25" x="-40.91796875" ry="5" rx="5" style="" class="basic label-container"></rect><g transform="translate(-32.91796875, -9.25)" style="" class="label"><rect></rect><g><rect style="stroke: none" class="background"></rect><text style="" y="-10.1"><tspan dy="1.1em" y="-0.1em" x="0" class="text-outer-tspan"><tspan font-weight="normal" class="text-inner-tspan" font-style="normal">finalizing</tspan></tspan></text></g></g></g><g transform="translate(1097.203125, 85.44999885559082)" id="state-thinking-7" class="node  statediagram-state"><rect height="34.5" width="73.796875" y="-17.25" x="-36.8984375" ry="5" rx="5" style="" class="basic label-container"></rect><g transform="translate(-28.8984375, -9.25)" style="" class="label"><rect></rect><g><rect style="stroke: none" class="background"></rect><text style="" y="-10.1"><tspan dy="1.1em" y="-0.1em" x="0" class="text-outer-tspan"><tspan font-weight="normal" class="text-inner-tspan" font-style="normal">thinking</tspan></tspan></text></g></g></g><g transform="translate(1391.63671875, 178.49999809265137)" id="state-speaking-8" class="node  statediagram-state"><rect height="34.5" width="77.9296875" y="-17.25" x="-38.96484375" ry="5" rx="5" style="" class="basic label-container"></rect><g transform="translate(-30.96484375, -9.25)" style="" class="label"><rect></rect><g><rect style="stroke: none" class="background"></rect><text style="" y="-10.1"><tspan dy="1.1em" y="-0.1em" x="0" class="text-outer-tspan"><tspan font-weight="normal" class="text-inner-tspan" font-style="normal">speaking</tspan></tspan></text></g></g></g></g></g></g></svg>